<svg width="64" height="64" viewBox="0 0 64 64" fill="none" xmlns="http://www.w3.org/2000/svg">
<rect x="0.5" y="0.5" width="63" height="63" rx="31.5" fill="#F8FCFE"/>
<rect x="0.5" y="0.5" width="63" height="63" rx="31.5" stroke="#161D46"/>
<path d="M43.7068 32.7081L34.7068 41.7081C34.5191 41.8957 34.2646 42.0011 33.9993 42.0011C33.7339 42.0011 33.4794 41.8957 33.2918 41.7081C33.1041 41.5204 32.9987 41.2659 32.9987 41.0006C32.9987 40.7352 33.1041 40.4807 33.2918 40.2931L40.5855 33.0006H20.9993C20.7341 33.0006 20.4797 32.8952 20.2922 32.7077C20.1046 32.5201 19.9993 32.2658 19.9993 32.0006C19.9993 31.7353 20.1046 31.481 20.2922 31.2934C20.4797 31.1059 20.7341 31.0006 20.9993 31.0006H40.5855L33.2918 23.7081C33.1041 23.5204 32.9987 23.2659 32.9987 23.0006C32.9987 22.7352 33.1041 22.4807 33.2918 22.2931C33.4794 22.1054 33.7339 22 33.9993 22C34.2646 22 34.5191 22.1054 34.7068 22.2931L43.7068 31.2931C43.7997 31.3859 43.8735 31.4962 43.9238 31.6176C43.9742 31.739 44.0001 31.8691 44.0001 32.0006C44.0001 32.132 43.9742 32.2621 43.9238 32.3835C43.8735 32.5049 43.7997 32.6152 43.7068 32.7081Z" fill="#161D46"/>
</svg>
